<svg id="visual" viewBox="0 0 900 600" width="900" height="600" xmlns="http://www.w3.org/2000/svg" xmlns:xlink="http://www.w3.org/1999/xlink" version="1.1"><rect x="0" y="0" width="900" height="600" fill="#1b2223"></rect><g fill="none" stroke="#0fe0f5" stroke-width="1"><circle r="47" cx="323" cy="315"></circle><circle r="26" cx="493" cy="70"></circle><circle r="42" cx="784" cy="480"></circle><circle r="36" cx="871" cy="59"></circle><circle r="39" cx="861" cy="207"></circle><circle r="28" cx="41" cy="398"></circle><circle r="32" cx="69" cy="170"></circle><circle r="28" cx="667" cy="20"></circle><circle r="35" cx="844" cy="355"></circle><circle r="32" cx="143" cy="63"></circle><circle r="25" cx="687" cy="254"></circle><circle r="28" cx="404" cy="458"></circle><circle r="41" cx="347" cy="30"></circle><circle r="39" cx="503" cy="211"></circle><circle r="38" cx="869" cy="585"></circle><circle r="28" cx="311" cy="136"></circle><circle r="39" cx="43" cy="570"></circle><circle r="41" cx="310" cy="530"></circle><circle r="25" cx="526" cy="484"></circle><circle r="43" cx="192" cy="404"></circle><circle r="41" cx="570" cy="328"></circle><circle r="30" cx="676" cy="590"></circle><circle r="44" cx="95" cy="277"></circle><circle r="31" cx="220" cy="230"></circle><circle r="40" cx="647" cy="460"></circle><circle r="41" cx="890" cy="477"></circle><circle r="31" cx="762" cy="91"></circle><circle r="31" cx="571" cy="132"></circle><circle r="25" cx="723" cy="368"></circle><circle r="42" cx="147" cy="525"></circle><circle r="35" cx="430" cy="586"></circle><circle r="25" cx="37" cy="26"></circle><circle r="35" cx="428" cy="321"></circle><circle r="40" cx="681" cy="151"></circle><circle r="27" cx="370" cy="229"></circle><circle r="45" cx="298" cy="417"></circle><circle r="33" cx="571" cy="587"></circle><circle r="30" cx="242" cy="46"></circle><circle r="30" cx="1" cy="247"></circle></g></svg>